<svg width="20" height="16" viewBox="0 0 20 16" fill="none" xmlns="http://www.w3.org/2000/svg">
<path d="M16.2199 7.5455C18.2696 7.5455 20 5.83736 20 3.77275C20 1.70814 18.2919 0 16.2199 0C14.1553 0 12.4471 1.70814 12.4471 3.77275C12.4471 5.85221 14.1553 7.5455 16.2199 7.5455ZM6.03789 12.1798H14.7049C14.9944 12.1798 15.2469 11.9421 15.2469 11.6228C15.2469 11.3034 14.9944 11.0658 14.7049 11.0658H6.16414C5.74082 11.0658 5.48089 10.7687 5.41404 10.3157L5.30264 9.53586H14.7198C15.4921 9.53586 15.9896 9.20907 16.2719 8.57039C15.6331 8.57039 15.0315 8.44414 14.4746 8.19907C14.3633 8.34761 14.2221 8.41443 14.0142 8.41443L5.13182 8.42186L4.50057 4.11439H11.4519C11.4148 3.77275 11.4371 3.32714 11.4891 2.99296H4.33718L4.2035 2.04979C4.12182 1.47789 3.92129 1.18829 3.16379 1.18829H0.549571C0.2525 1.18829 0 1.44821 0 1.74529C0 2.04979 0.2525 2.30971 0.549571 2.30971H3.05979L4.24807 10.4642C4.404 11.5188 4.96104 12.1798 6.03789 12.1798ZM16.2274 6.22357C15.9674 6.22357 15.7371 6.04532 15.7371 5.77054V4.22579H14.3187C14.0662 4.22579 13.8656 4.01786 13.8656 3.77275C13.8656 3.52768 14.0662 3.31971 14.3187 3.31971H15.7371V1.78243C15.7371 1.50018 15.9674 1.32196 16.2274 1.32196C16.4873 1.32196 16.71 1.50018 16.71 1.78243V3.31971H18.1286C18.3811 3.31971 18.589 3.52768 18.589 3.77275C18.589 4.01786 18.3811 4.22579 18.1286 4.22579H16.71V5.77054C16.71 6.04532 16.4873 6.22357 16.2274 6.22357ZM6.62461 15.7891C7.293 15.7891 7.82771 15.2618 7.82771 14.586C7.82771 13.9176 7.293 13.3829 6.62461 13.3829C5.94875 13.3829 5.42146 13.9176 5.42146 14.586C5.42146 15.2618 5.94875 15.7891 6.62461 15.7891ZM13.576 15.7891C14.2444 15.7891 14.7791 15.2618 14.7791 14.586C14.7791 13.9176 14.2444 13.3829 13.576 13.3829C12.9001 13.3829 12.358 13.9176 12.358 14.586C12.358 15.2618 12.9001 15.7891 13.576 15.7891Z" fill="#333" fill-opacity="0.8"/>
</svg>
