<svg width="24" height="21" viewBox="0 0 24 21" fill="none" xmlns="http://www.w3.org/2000/svg">
<path d="M22.437 8.8605C22.242 7.6725 21.6075 4.0395 20.9205 2.664C20.463 1.749 19.2885 1.0485 17.4315 0.585C15.9225 0.2085 13.9935 0 12 0C10.0065 0 8.0775 0.207 6.5685 0.585C4.7115 1.05 3.537 1.749 3.0795 2.664C2.3925 4.038 1.758 7.6725 1.563 8.8605C0.5145 9.579 0 10.6185 0 12V15.75C0 16.728 0.627 17.562 1.5 17.871V19.5C1.5 20.3265 2.1735 21 3 21H4.5C5.3265 21 6 20.3265 6 19.5V18H18V19.5C18 20.3265 18.6735 21 19.5 21H21C21.8265 21 22.5 20.3265 22.5 19.5V17.871C23.373 17.562 24 16.728 24 15.75V12C24 10.6185 23.4855 9.579 22.437 8.8605ZM4.4205 3.336C4.866 2.4465 7.6725 1.5 12 1.5C16.3275 1.5 19.134 2.445 19.5795 3.336C20.01 4.1985 20.4885 6.48 20.784 8.1105C20.637 8.067 20.4855 8.0265 20.3295 7.9905C19.929 7.896 19.497 7.8195 19.035 7.7565L14.6865 4.641C14.3505 4.3995 13.881 4.4775 13.6395 4.8135C13.398 5.1495 13.476 5.619 13.812 5.8605L16.161 7.5435C14.886 7.5015 13.488 7.5015 11.9985 7.5015C11.823 7.5015 11.649 7.5015 11.475 7.5015L7.164 4.6275C6.819 4.398 6.354 4.491 6.1245 4.836C5.895 5.181 5.988 5.646 6.333 5.8755L8.799 7.5195C6.7875 7.5555 5.0385 7.665 3.669 7.9905C3.513 8.028 3.3615 8.0685 3.2145 8.1105C3.5115 6.48 3.9885 4.1985 4.4205 3.336ZM4.5 19.5H3V18H4.5V19.5ZM19.5 19.5V18H21V19.5H19.5ZM22.5 15.75C22.5 16.164 22.164 16.5 21.75 16.5H2.25C1.836 16.5 1.5 16.164 1.5 15.75V12C1.5 10.614 2.229 9.8745 4.017 9.4485C5.8995 9 8.727 9 12 9C15.273 9 18.099 9 19.983 9.4485C21.771 9.8745 22.5 10.614 22.5 12V15.75Z" fill="#A9A9A9"/>
</svg>
