<?xml version="1.0" encoding="UTF-8" standalone="no"?> <svg xmlns="http://www.w3.org/2000/svg" stroke="rgba(156, 163, 175)" width="23px" height="23px" fill="rgba(156, 163, 175)" viewBox="0 0 64 64"><g id="Layer_93" data-name="Layer 93"><path d="M58.88,29.12l-26-26a1.24,1.24,0,0,0-1.76,0l-26,26a1.22,1.22,0,0,0-.37.88V57a4.15,4.15,0,0,0,4,4.25H55.21a4.15,4.15,0,0,0,4-4.25V30A1.22,1.22,0,0,0,58.88,29.12ZM24.25,58.75V40A1.76,1.76,0,0,1,26,38.25H38A1.76,1.76,0,0,1,39.75,40V58.75ZM56.75,57a1.66,1.66,0,0,1-1.54,1.75h-13V40A4.26,4.26,0,0,0,38,35.75H26A4.26,4.26,0,0,0,21.75,40V58.75h-13A1.66,1.66,0,0,1,7.25,57V30.52L32,5.77,56.75,30.52Z"/></g></svg>