<svg width="20" height="18" viewBox="0 0 20 18" fill="none" xmlns="http://www.w3.org/2000/svg">
<path d="M17.7452 3.90204C17.6222 3.72648 17.4587 3.58314 17.2686 3.48415C17.0784 3.38516 16.8672 3.33343 16.6529 3.33333H13.3333V1.33333C13.3329 0.979833 13.1923 0.640925 12.9424 0.390963C12.6924 0.141 12.3535 0.000397018 12 0H1.33333C0.979833 0.000397018 0.640925 0.141 0.390963 0.390963C0.141 0.640925 0.000397018 0.979833 0 1.33333V15H2.21175C2.32889 15.6543 2.67237 16.2465 3.1821 16.6731C3.69183 17.0997 4.33533 17.3334 5 17.3334C5.66467 17.3334 6.30817 17.0997 6.8179 16.6731C7.32763 16.2465 7.67111 15.6543 7.78825 15H12.2117C12.3289 15.6543 12.6724 16.2465 13.1821 16.6731C13.6918 17.0997 14.3353 17.3334 15 17.3334C15.6647 17.3334 16.3082 17.0997 16.8179 16.6731C17.3276 16.2465 17.6711 15.6543 17.7882 15H20V7.43842C20.0003 7.2332 19.9372 7.0329 19.8192 6.86496L17.7452 3.90204ZM1.3325 1.33333H12V8.66667H1.33333L1.3325 1.33333ZM5 16C4.70333 16 4.41332 15.912 4.16664 15.7472C3.91997 15.5824 3.72771 15.3481 3.61418 15.074C3.50065 14.7999 3.47094 14.4983 3.52882 14.2074C3.5867 13.9164 3.72956 13.6491 3.93934 13.4393C4.14912 13.2296 4.41639 13.0867 4.70736 13.0288C4.99834 12.9709 5.29994 13.0006 5.57402 13.1142C5.84811 13.2277 6.08238 13.42 6.2472 13.6666C6.41203 13.9133 6.5 14.2033 6.5 14.5C6.49956 14.8977 6.34138 15.279 6.06017 15.5602C5.77896 15.8414 5.39769 15.9996 5 16ZM15 16C14.7033 16 14.4133 15.912 14.1666 15.7472C13.92 15.5824 13.7277 15.3481 13.6142 15.074C13.5006 14.7999 13.4709 14.4983 13.5288 14.2074C13.5867 13.9164 13.7296 13.6491 13.9393 13.4393C14.1491 13.2296 14.4164 13.0867 14.7074 13.0288C14.9983 12.9709 15.2999 13.0006 15.574 13.1142C15.8481 13.2277 16.0824 13.42 16.2472 13.6666C16.412 13.9133 16.5 14.2033 16.5 14.5C16.4996 14.8977 16.3414 15.279 16.0602 15.5602C15.779 15.8414 15.3977 15.9996 15 16ZM18.6667 13.6667H17.7081C17.5299 13.0875 17.1708 12.5807 16.6833 12.2207C16.1959 11.8607 15.6059 11.6664 15 11.6664C14.394 11.6664 13.8041 11.8607 13.3167 12.2207C12.8292 12.5807 12.4701 13.0875 12.2919 13.6667H7.70808C7.52991 13.0875 7.17076 12.5807 6.68335 12.2207C6.19594 11.8607 5.60595 11.6664 5 11.6664C4.39405 11.6664 3.80406 11.8607 3.31665 12.2207C2.82924 12.5807 2.47009 13.0875 2.29192 13.6667H1.33333V10H18.6667V13.6667ZM18.6667 8.66667H13.3333V4.66667H16.6529L18.6667 7.5435V8.66667Z" fill="#111111" fill-opacity="0.8"/>
</svg>
